<svg width="18" height="21" viewBox="0 0 18 21" fill="none" xmlns="http://www.w3.org/2000/svg">
<g id="Component 4">
<path id="Vector" d="M15.8659 16.5249V9.29276H14.36C14.5088 9.76151 14.5831 10.2489 14.5831 10.7548C14.5831 11.6923 14.3452 12.5573 13.8693 13.3497C13.3933 14.1421 12.7464 14.769 11.9284 15.2303C11.1104 15.6916 10.2181 15.9222 9.25142 15.9222C7.7865 15.9222 6.53351 15.4181 5.49245 14.4099C4.45139 13.4018 3.93086 12.1834 3.93086 10.7548C3.93086 10.2489 4.00522 9.76151 4.15394 9.29276H2.5812V16.5249C2.5812 16.7184 2.64626 16.8802 2.7764 17.0104C2.90653 17.1406 3.06826 17.2057 3.2616 17.2057H15.1855C15.3714 17.2057 15.5312 17.1406 15.6651 17.0104C15.7989 16.8802 15.8659 16.7184 15.8659 16.5249ZM11.6886 12.9367C11.6886 12.9367 11.8569 12.774 12.1933 12.4485C12.5298 12.1229 12.6981 11.4989 12.6981 10.5762C12.6981 9.65362 12.3616 8.86679 11.6886 8.21575C11.0156 7.56471 10.2032 7.23919 9.25142 7.23919C8.30703 7.23919 7.49835 7.56471 6.82537 8.21575C6.1524 8.86679 5.81592 9.65362 5.81592 10.5762C5.81592 11.4989 6.1524 12.2857 6.82537 12.9367C7.49835 13.5878 8.30703 13.9133 9.25142 13.9133C10.2032 13.9133 11.0156 13.5878 11.6886 12.9367ZM15.8659 6.55838V4.71687C15.8659 4.50853 15.7915 4.3281 15.6428 4.17557C15.4941 4.02304 15.3119 3.94678 15.0962 3.94678H13.1554C12.9397 3.94678 12.7576 4.02304 12.6088 4.17557C12.4601 4.3281 12.3857 4.50853 12.3857 4.71687V6.55838C12.3857 6.77416 12.4601 6.95645 12.6088 7.10526C12.7576 7.25407 12.9397 7.32847 13.1554 7.32847H15.0962C15.3119 7.32847 15.4941 7.25407 15.6428 7.10526C15.7915 6.95645 15.8659 6.77416 15.8659 6.55838ZM17.8067 4.23696V16.9825C17.8067 17.5852 17.591 18.1023 17.1597 18.5338C16.7285 18.9654 16.2116 19.1812 15.6093 19.1812H2.87121C2.26888 19.1812 1.75207 18.9654 1.32077 18.5338C0.889476 18.1023 0.673828 17.5852 0.673828 16.9825V4.23696C0.673828 3.63428 0.889476 3.11716 1.32077 2.68562C1.75207 2.25407 2.26888 2.0383 2.87121 2.0383H15.6093C16.2116 2.0383 16.7285 2.25407 17.1597 2.68562C17.591 3.11716 17.8067 3.63428 17.8067 4.23696Z" fill="white"/>
</g>
</svg>
